# xmcd
#
# Track frame offsets: 
#        182
#        14447
#        31897
#        47895
#        61297
#        79855
#        91232
#        107135
#        120190
#        134725
#        150827
#        163645
#
# Disc length: 2380 seconds
#
# Revision: 2
# Processed by: cddbd v1.5PL3 Copyright (c) Steve Scherf et al.
# Submitted via: ExactAudioCopy v0.95a3
#
DISCID=8e094a0c
DTITLE=Ruby Lovett - Ruby Lovett
DYEAR=1998
DGENRE=
TTITLE0=True Love Never Dies
TTITLE1=Nothing To Prove
TTITLE2=I'm So Afraid Of Losing You Again
TTITLE3=Little Bitty Crack In His Heat
TTITLE4=Look What Love Can Do
TTITLE5=That Train Don'r Stop Here Anymore
TTITLE6=Crazy Enough
TTITLE7=Your Love Speaks Loude Than Words
TTITLE8=One Of Them's Yours (Duet With Ken Mellons)
TTITLE9=In The Arms Of Love
TTITLE10=I Don't Want To Go Out Wondering
TTITLE11=When He's All You've Got
EXTD=
EXTT0=
EXTT1=
EXTT2=
EXTT3=
EXTT4=
EXTT5=
EXTT6=
EXTT7=
EXTT8=
EXTT9=
EXTT10=
EXTT11=
PLAYORDER=
